<svg xmlns="http://www.w3.org/2000/svg" xmlns:xlink="http://www.w3.org/1999/xlink" width="263" zoomAndPan="magnify" viewBox="0 0 197.25 112.499997" height="150" preserveAspectRatio="xMidYMid meet" version="1.0"><defs><g/><clipPath id="d2e7b2bdc8"><path d="M 49 99 L 52 99 L 52 106.550781 L 49 106.550781 Z M 49 99 " clip-rule="nonzero"/></clipPath><clipPath id="b35e939870"><path d="M 68 68 L 94.890625 68 L 94.890625 91 L 68 91 Z M 68 68 " clip-rule="nonzero"/></clipPath><clipPath id="8ea8d54fd4"><path d="M 64 10 L 94.890625 10 L 94.890625 60 L 64 60 Z M 64 10 " clip-rule="nonzero"/></clipPath></defs><g clip-path="url(#d2e7b2bdc8)"><path fill="#ffffff" d="M 51.015625 105.867188 C 50.886719 105.488281 50.628906 104.484375 50.449219 103.632812 C 50.265625 102.78125 50 102.011719 49.855469 101.925781 C 49.660156 101.808594 49.648438 101.734375 49.808594 101.636719 C 50.121094 101.441406 49.859375 99.261719 49.527344 99.261719 C 49.191406 99.261719 49.023438 100.027344 49.179688 100.855469 C 49.449219 102.300781 50.941406 106.550781 51.183594 106.550781 C 51.222656 106.550781 51.148438 106.242188 51.015625 105.867188 Z M 51.015625 105.867188 " fill-opacity="1" fill-rule="nonzero"/></g><path fill="#ffffff" d="M 51.316406 58.960938 C 50.898438 56.8125 50.941406 55.921875 51.535156 54.710938 C 52.082031 53.589844 52.402344 53.320312 53.914062 52.703125 L 54.929688 52.289062 L 54.238281 52.023438 C 53.855469 51.875 53.15625 51.648438 52.683594 51.519531 C 51.59375 51.222656 51.527344 50.871094 52.589844 51.046875 C 53.015625 51.113281 53.441406 51.246094 53.535156 51.339844 C 53.632812 51.4375 53.835938 51.515625 53.992188 51.519531 C 54.144531 51.519531 54.476562 51.679688 54.726562 51.878906 C 54.976562 52.074219 55.335938 52.234375 55.527344 52.238281 C 55.867188 52.242188 55.867188 52.226562 55.503906 51.832031 C 55.300781 51.605469 55.003906 51.167969 54.847656 50.859375 C 54.566406 50.300781 54.191406 49.945312 52.363281 48.503906 C 50.289062 46.878906 48.089844 44.304688 47.546875 42.875 C 47.109375 41.738281 47.265625 41.523438 47.984375 42.246094 L 48.59375 42.855469 L 48.480469 41.691406 C 48.417969 41.050781 48.367188 39.554688 48.367188 38.367188 C 48.367188 36.328125 48.34375 36.207031 48.003906 36.207031 C 47.664062 36.207031 47.640625 36.328125 47.640625 38.03125 L 47.640625 39.855469 L 46.554688 39.304688 C 45.535156 38.792969 44.578125 38.605469 44.3125 38.875 C 44.246094 38.9375 44.597656 39.429688 45.085938 39.96875 C 45.609375 40.542969 46.132812 41.359375 46.351562 41.953125 C 46.84375 43.265625 46.832031 43.375 46.210938 43.054688 C 45.929688 42.90625 45.539062 42.828125 45.347656 42.875 C 45.160156 42.925781 44.839844 42.839844 44.640625 42.6875 C 44.371094 42.484375 44.347656 42.410156 44.546875 42.40625 C 44.691406 42.40625 43.949219 41.882812 42.886719 41.253906 C 38.320312 38.527344 35.59375 36.097656 34.148438 33.464844 C 33.675781 32.609375 33.21875 31.585938 33.132812 31.1875 L 32.972656 30.464844 L 32.832031 31.160156 C 32.464844 32.972656 32.980469 37.160156 33.824219 39.210938 C 34.046875 39.753906 34.050781 39.753906 34.238281 39.351562 C 34.339844 39.125 34.492188 38.9375 34.570312 38.9375 C 34.886719 38.9375 34.925781 39.335938 34.667969 39.863281 C 34.511719 40.167969 34.441406 40.554688 34.5 40.726562 C 34.5625 40.898438 34.449219 40.832031 34.246094 40.578125 C 34.046875 40.328125 33.835938 39.960938 33.78125 39.757812 C 33.722656 39.558594 33.386719 38.695312 33.035156 37.847656 C 32.082031 35.546875 31.800781 34.335938 31.695312 32.046875 C 31.621094 30.421875 31.664062 29.730469 31.914062 28.808594 C 32.789062 25.566406 35.679688 23.105469 40.277344 21.683594 C 41.746094 21.230469 42.195312 21.175781 44.679688 21.164062 C 46.203125 21.15625 47.507812 21.09375 47.574219 21.023438 C 47.640625 20.957031 47.785156 20.976562 47.894531 21.066406 C 48.183594 21.304688 51.085938 20.945312 51.601562 20.605469 C 51.835938 20.453125 52.144531 20.367188 52.28125 20.421875 C 52.621094 20.550781 54.203125 20.066406 54.378906 19.777344 C 54.792969 19.105469 53.3125 18.363281 50.605469 17.890625 C 48.496094 17.519531 47.066406 17.523438 47.210938 17.890625 C 47.285156 18.089844 47.230469 18.136719 47.023438 18.054688 C 46.863281 17.996094 46.785156 17.859375 46.847656 17.75 C 46.929688 17.617188 46.042969 17.59375 43.9375 17.667969 C 42.117188 17.730469 40.949219 17.707031 41.011719 17.609375 C 41.25 17.21875 43.960938 15.804688 46.992188 14.484375 C 48.785156 13.707031 50.328125 12.933594 50.421875 12.769531 C 50.558594 12.523438 50.617188 12.515625 50.746094 12.722656 C 50.863281 12.902344 50.90625 12.910156 50.90625 12.742188 C 50.90625 12.617188 51.132812 12.511719 51.410156 12.511719 C 51.683594 12.511719 52.03125 12.425781 52.183594 12.324219 C 52.414062 12.167969 52.394531 12.09375 52.039062 11.789062 C 50.84375 10.789062 47.300781 11.292969 42.167969 13.195312 C 40.277344 13.894531 39.53125 14.480469 39.96875 14.921875 C 40.191406 15.144531 41.277344 14.785156 41.277344 14.484375 C 41.277344 14.394531 41.34375 14.355469 41.425781 14.40625 C 41.503906 14.457031 42.117188 14.300781 42.785156 14.058594 C 44.222656 13.53125 47.601562 12.65625 47.855469 12.738281 C 47.953125 12.773438 47.46875 12.980469 46.78125 13.203125 C 43.925781 14.125 40.511719 16.257812 38.363281 18.460938 C 37.082031 19.777344 37.050781 19.742188 38.957031 19.242188 C 39.761719 19.027344 39.796875 18.945312 39.191406 18.710938 C 38.554688 18.46875 38.785156 18.054688 39.554688 18.054688 C 40.273438 18.054688 40.261719 18.046875 39.96875 18.519531 C 39.660156 19.011719 39.785156 19.066406 40.734375 18.886719 C 41.179688 18.796875 42.558594 18.667969 43.796875 18.597656 C 45.820312 18.484375 46 18.445312 45.613281 18.21875 C 45.203125 17.980469 45.214844 17.976562 45.820312 18.089844 C 46.171875 18.15625 46.496094 18.273438 46.546875 18.351562 C 46.597656 18.429688 47.128906 18.542969 47.726562 18.609375 C 50.863281 18.945312 51.792969 19.113281 51.703125 19.335938 C 51.640625 19.503906 51.246094 19.542969 50.253906 19.480469 C 48.921875 19.390625 48.136719 19.582031 47.777344 20.078125 C 47.703125 20.179688 47.640625 20.121094 47.640625 19.941406 C 47.636719 19.523438 47.269531 19.53125 44.09375 20 C 40.003906 20.597656 37.316406 21.226562 35.882812 21.914062 C 33.375 23.117188 31.550781 25.558594 30.734375 28.8125 C 30.289062 30.574219 30.097656 33.816406 30.324219 35.636719 C 30.46875 36.777344 30.457031 36.933594 30.253906 36.648438 C 29.773438 35.992188 29.246094 34.265625 29.046875 32.695312 C 28.785156 30.644531 29.070312 27.945312 29.769531 25.8125 C 30.046875 24.964844 30.261719 24.105469 30.242188 23.902344 C 30.226562 23.703125 30.257812 23.644531 30.3125 23.773438 C 30.367188 23.90625 30.859375 23.320312 31.460938 22.40625 C 32.644531 20.605469 34.9375 18.292969 36.734375 17.097656 C 37.785156 16.398438 37.925781 16.234375 38.019531 15.597656 L 38.121094 14.886719 L 37.15625 15.429688 C 35.5 16.367188 34.9375 16.089844 35.1875 14.464844 C 35.46875 12.632812 36.328125 10.503906 37.390625 9.007812 L 38.003906 8.140625 L 37.429688 8.140625 C 36.679688 8.140625 35.441406 9.398438 34.582031 11.019531 C 34.050781 12.03125 34 12.234375 34.175781 12.734375 C 34.285156 13.046875 34.339844 13.335938 34.296875 13.378906 C 34.257812 13.417969 34.167969 13.28125 34.101562 13.078125 C 34.039062 12.867188 33.925781 12.699219 33.855469 12.699219 C 33.613281 12.699219 31.644531 18.492188 31.644531 19.203125 C 31.644531 19.335938 31.292969 19.878906 30.859375 20.414062 C 29.730469 21.800781 29.023438 23.117188 28.347656 25.09375 C 27.785156 26.730469 27.753906 26.957031 27.765625 29.371094 C 27.769531 32.085938 28.027344 33.425781 29.023438 36.046875 C 29.449219 37.171875 29.695312 37.46875 32.476562 40.191406 C 37.300781 44.910156 39.875 46.667969 45.546875 49.109375 C 49.597656 50.851562 50.910156 51.480469 50.910156 51.671875 C 50.910156 52.046875 49.953125 52.972656 49.566406 52.972656 C 49.34375 52.972656 48.367188 52.402344 47.398438 51.710938 C 46.429688 51.019531 44.742188 49.992188 43.644531 49.425781 C 40.078125 47.601562 36.742188 46.507812 36.726562 47.160156 C 36.726562 47.335938 36.667969 47.320312 36.542969 47.097656 C 36.402344 46.863281 36.214844 46.816406 35.773438 46.898438 C 34.769531 47.085938 34.5 47.460938 34.609375 48.511719 C 34.742188 49.828125 35.71875 52.234375 36.734375 53.757812 C 37.769531 55.308594 39.785156 57.3125 40.863281 57.867188 C 42.519531 58.714844 45.175781 59.101562 45.394531 58.523438 C 45.476562 58.308594 45.554688 58.292969 45.757812 58.460938 C 45.898438 58.578125 46.058594 58.625 46.117188 58.566406 C 46.175781 58.507812 45.714844 58.148438 45.09375 57.769531 C 42.195312 55.980469 39.5625 53.695312 37.972656 51.578125 C 37.398438 50.820312 37.207031 50.378906 37.140625 49.695312 C 37.058594 48.835938 37.074219 48.792969 37.566406 48.667969 C 37.960938 48.570312 38.347656 48.679688 39.234375 49.140625 C 40.140625 49.613281 40.832031 50.21875 42.421875 51.945312 C 45.96875 55.785156 46.457031 56.226562 47.367188 56.472656 C 48 56.644531 48.222656 56.800781 48.308594 57.136719 C 48.371094 57.378906 48.203125 58.613281 47.9375 59.878906 C 47.671875 61.140625 47.457031 62.304688 47.457031 62.457031 C 47.457031 62.648438 47.765625 62.824219 48.367188 62.976562 C 49.488281 63.265625 49.601562 63.640625 48.511719 63.464844 C 48.089844 63.398438 47.648438 63.261719 47.527344 63.160156 C 47.285156 62.957031 47.046875 63.859375 46.273438 67.824219 C 45.570312 71.425781 45.371094 73.636719 45.378906 77.664062 C 45.382812 80.828125 45.453125 81.902344 45.800781 83.851562 C 46.253906 86.414062 46.917969 88.90625 47.453125 90.054688 C 47.636719 90.457031 47.890625 91.257812 48.015625 91.832031 C 48.199219 92.671875 48.289062 92.839844 48.488281 92.675781 C 48.78125 92.429688 48.796875 92.59375 48.53125 93.097656 C 48.386719 93.363281 48.382812 93.863281 48.523438 94.863281 C 48.625 95.628906 48.765625 96.972656 48.835938 97.855469 C 48.953125 99.429688 48.960938 99.453125 49.308594 99.136719 C 49.628906 98.847656 49.660156 98.597656 49.621094 96.625 C 49.597656 95.414062 49.542969 94.335938 49.503906 94.222656 C 49.464844 94.109375 49.253906 94.054688 49.035156 94.101562 C 48.65625 94.183594 48.660156 94.167969 49.09375 93.808594 C 49.449219 93.511719 49.492188 93.398438 49.304688 93.273438 C 49.109375 93.144531 49.117188 93.09375 49.351562 93.003906 C 49.574219 92.917969 49.644531 92.59375 49.660156 91.566406 C 49.671875 90.835938 49.734375 89.664062 49.796875 88.960938 C 49.921875 87.585938 49.613281 86.320312 49.152344 86.320312 C 48.984375 86.320312 48.9375 86.183594 49.007812 85.902344 C 49.066406 85.671875 48.90625 84.777344 48.660156 83.910156 C 47.242188 79.003906 46.828125 73.285156 47.476562 67.550781 C 47.753906 65.101562 47.664062 65.144531 49.246094 66.6875 C 50.011719 67.429688 51.027344 68.261719 51.503906 68.542969 C 52.320312 69.015625 53.988281 69.625 54.121094 69.496094 C 54.152344 69.464844 53.847656 68.992188 53.445312 68.449219 C 53.042969 67.910156 52.511719 67.054688 52.269531 66.550781 C 51.8125 65.613281 51.324219 63.613281 51.503906 63.429688 C 51.5625 63.375 52.039062 63.667969 52.5625 64.085938 C 53.636719 64.9375 54.773438 65.589844 54.433594 65.164062 C 52.605469 62.855469 51.738281 61.128906 51.316406 58.960938 Z M 50.730469 49.691406 C 50.679688 49.6875 50.125 49.402344 49.5 49.054688 C 48.808594 48.667969 48.363281 48.507812 48.359375 48.644531 C 48.359375 48.769531 48.214844 48.691406 48.042969 48.472656 C 47.871094 48.253906 45.929688 47.078125 43.730469 45.859375 C 41.53125 44.636719 39.195312 43.242188 38.539062 42.753906 C 35.4375 40.457031 33.636719 37.546875 33.648438 34.867188 L 33.65625 33.929688 L 34.183594 35.019531 C 35.382812 37.480469 38.34375 40.269531 43.277344 43.578125 C 45.804688 45.273438 51.246094 48.417969 51.652344 48.417969 C 51.742188 48.417969 51.976562 48.554688 52.175781 48.726562 C 52.527344 49.027344 52.515625 49.046875 51.679688 49.363281 C 51.207031 49.542969 50.777344 49.691406 50.730469 49.691406 Z M 49.410156 56.589844 L 49.417969 55.5625 L 48.742188 55.457031 C 47.8125 55.308594 46.234375 54.222656 44.1875 52.332031 C 43.234375 51.453125 41.804688 50.242188 41.003906 49.640625 C 39.15625 48.242188 39.074219 48.167969 39.71875 48.410156 C 40.011719 48.523438 40.355469 48.570312 40.492188 48.519531 C 40.625 48.46875 40.734375 48.5 40.734375 48.59375 C 40.734375 48.6875 41.289062 49.054688 41.972656 49.414062 C 42.652344 49.773438 43.855469 50.605469 44.644531 51.261719 C 46.277344 52.621094 47.457031 53.277344 48.6875 53.507812 C 49.449219 53.652344 49.574219 53.625 49.925781 53.246094 C 50.484375 52.640625 51.316406 52.253906 52.316406 52.132812 L 53.179688 52.027344 L 52.589844 52.40625 C 52.265625 52.613281 52 52.863281 52 52.957031 C 52 53.054688 51.847656 53.179688 51.65625 53.238281 C 51.234375 53.375 50.503906 54.453125 50.175781 55.429688 C 50.042969 55.832031 49.882812 56.773438 49.824219 57.527344 C 49.726562 58.769531 49.703125 58.835938 49.5625 58.257812 C 49.472656 57.90625 49.40625 57.15625 49.410156 56.589844 Z M 49.410156 56.589844 " fill-opacity="1" fill-rule="nonzero"/><g clip-path="url(#b35e939870)"><path fill="#ffffff" d="M 93.304688 80.03125 C 92.726562 79.964844 91.292969 79.769531 90.121094 79.597656 C 88.691406 79.386719 87.984375 79.347656 87.980469 79.476562 C 87.976562 79.582031 87.84375 79.832031 87.683594 80.035156 C 87.398438 80.394531 87.394531 80.394531 87.488281 79.996094 C 87.539062 79.777344 87.488281 79.476562 87.375 79.328125 C 87.136719 79.023438 84.496094 78.441406 84.082031 78.601562 C 83.929688 78.65625 83.804688 78.628906 83.804688 78.535156 C 83.804688 78.441406 83.253906 78.265625 82.578125 78.144531 C 78.808594 77.460938 75.804688 76.378906 74.515625 75.238281 C 74.027344 74.8125 73.671875 74.1875 73.105469 72.757812 C 72.6875 71.707031 72.082031 70.386719 71.761719 69.824219 L 71.175781 68.804688 L 71.035156 69.488281 C 70.816406 70.53125 70.074219 71.171875 68.722656 71.46875 C 68.425781 71.53125 68.136719 71.65625 68.085938 71.738281 C 68.035156 71.820312 68.488281 72.488281 69.097656 73.214844 C 71.167969 75.699219 71.992188 77.167969 72.550781 79.363281 C 73.222656 81.988281 73.3125 85.667969 72.8125 89.964844 C 72.738281 90.621094 72.84375 90.421875 73.359375 88.960938 C 73.710938 87.960938 74.199219 86.359375 74.441406 85.410156 C 74.8125 83.953125 75.445312 79.988281 75.445312 79.125 C 75.445312 78.929688 75.683594 78.976562 76.429688 79.320312 C 77.425781 79.777344 80.644531 80.671875 81.292969 80.671875 C 81.488281 80.671875 81.59375 80.589844 81.53125 80.488281 C 81.472656 80.390625 81.546875 80.308594 81.703125 80.308594 C 81.859375 80.308594 81.96875 80.40625 81.941406 80.53125 C 81.875 80.867188 84.710938 81.066406 87.585938 80.929688 C 89.570312 80.835938 89.988281 80.769531 89.910156 80.558594 C 89.828125 80.347656 89.882812 80.335938 90.191406 80.503906 C 90.617188 80.730469 94.101562 80.558594 94.257812 80.300781 C 94.308594 80.21875 93.878906 80.097656 93.304688 80.03125 Z M 93.304688 80.03125 " fill-opacity="1" fill-rule="nonzero"/></g><path fill="#ffffff" d="M 64.285156 71.289062 L 63.628906 70.785156 L 62.675781 71.199219 C 60.777344 72.019531 59 72.328125 57.25 72.132812 L 56.050781 72.003906 L 56.089844 78.644531 L 56.503906 78.253906 C 56.730469 78.039062 57.199219 77.273438 57.546875 76.550781 C 57.894531 75.824219 58.179688 75.109375 58.179688 74.957031 C 58.179688 74.574219 58.355469 74.488281 60.632812 73.738281 C 63.019531 72.949219 64.242188 72.355469 64.0625 72.070312 C 63.980469 71.9375 64.035156 71.898438 64.210938 71.96875 C 64.359375 72.023438 64.585938 72.007812 64.710938 71.929688 C 64.875 71.832031 64.75 71.644531 64.285156 71.289062 Z M 64.285156 71.289062 " fill-opacity="1" fill-rule="nonzero"/><path fill="#ffffff" d="M 69.214844 69.15625 L 69.617188 68.722656 L 68.398438 68.789062 C 67.726562 68.824219 66.980469 68.78125 66.746094 68.691406 C 66.429688 68.574219 66.125 68.625 65.609375 68.878906 C 64.769531 69.296875 63.996094 69.183594 63.996094 68.648438 C 63.996094 68.457031 63.789062 68.089844 63.539062 67.839844 C 63.199219 67.496094 63.085938 67.195312 63.085938 66.601562 L 63.085938 65.820312 L 62.675781 66.292969 C 62.453125 66.550781 62.03125 66.910156 61.742188 67.089844 L 61.210938 67.414062 L 61.832031 67.675781 C 62.601562 68 63.269531 68.613281 63.269531 69 C 63.269531 69.160156 63.140625 69.472656 62.984375 69.695312 C 62.671875 70.144531 62.839844 70.207031 63.519531 69.894531 C 63.898438 69.722656 64.050781 69.753906 64.460938 70.078125 C 65.171875 70.640625 66.804688 70.617188 67.953125 70.027344 C 68.425781 69.789062 68.992188 69.394531 69.214844 69.15625 Z M 69.214844 69.15625 " fill-opacity="1" fill-rule="nonzero"/><path fill="#ffffff" d="M 70.527344 63.640625 C 70.632812 63.574219 70.71875 63.269531 70.71875 62.964844 C 70.71875 62.558594 70.558594 62.273438 70.144531 61.925781 C 69.824219 61.664062 69.128906 61.015625 68.597656 60.492188 C 67.652344 59.5625 67.28125 59.53125 67.992188 60.445312 C 68.1875 60.695312 68.351562 60.949219 68.351562 61.011719 C 68.355469 61.074219 67.628906 61.113281 66.738281 61.101562 L 65.117188 61.082031 L 65.003906 60.375 C 64.871094 59.53125 63.878906 58.4375 63.246094 58.4375 L 62.824219 58.4375 L 63.246094 58.738281 C 64.160156 59.378906 64.445312 61.085938 63.8125 62.125 C 63.347656 62.890625 63.351562 62.933594 63.949219 63.078125 C 64.714844 63.265625 65.265625 63.695312 65.265625 64.09375 C 65.265625 64.605469 64.574219 64.558594 63.8125 63.996094 C 62.703125 63.179688 62.519531 63.644531 63.550781 64.644531 C 64.089844 65.164062 64.183594 65.363281 64.097656 65.800781 C 63.917969 66.714844 64.535156 67.066406 65.53125 66.609375 C 66.054688 66.371094 66.078125 66.292969 65.789062 65.65625 C 65.621094 65.289062 65.644531 65.066406 65.902344 64.515625 C 66.222656 63.84375 66.222656 63.828125 65.832031 63.550781 C 64.703125 62.746094 64.707031 62.753906 64.957031 62.265625 C 65.183594 61.824219 65.246094 61.8125 67.179688 61.796875 C 69.15625 61.785156 69.179688 61.789062 69.765625 62.335938 L 70.359375 62.886719 L 69.867188 63.28125 C 69.390625 63.660156 69.382812 63.703125 69.609375 64.390625 C 69.820312 65.035156 69.804688 65.167969 69.460938 65.757812 C 69.132812 66.316406 69.113281 66.4375 69.335938 66.625 C 69.933594 67.121094 70.714844 65.492188 70.453125 64.300781 C 70.382812 63.984375 70.414062 63.707031 70.527344 63.640625 Z M 70.527344 63.640625 " fill-opacity="1" fill-rule="nonzero"/><path fill="#ffffff" d="M 57.863281 59.054688 C 58.484375 59.410156 59.160156 59.699219 59.359375 59.699219 C 59.671875 59.699219 59.660156 59.664062 59.253906 59.441406 C 58.40625 58.980469 57.816406 58.007812 57.816406 57.078125 C 57.816406 55.722656 57.089844 54.695312 55.835938 54.273438 C 54.480469 53.816406 53.378906 54.082031 52.328125 55.105469 L 51.65625 55.757812 L 52.214844 56.863281 C 52.996094 58.410156 53.605469 59.351562 53.914062 59.46875 C 54.058594 59.523438 54.417969 59.363281 54.71875 59.113281 C 55.015625 58.863281 55.589844 58.601562 55.992188 58.53125 C 56.625 58.425781 56.882812 58.496094 57.863281 59.054688 Z M 55.089844 57.796875 C 54.464844 57.882812 54.144531 57.828125 53.726562 57.566406 C 53.425781 57.378906 53.019531 56.921875 52.824219 56.554688 C 52.625 56.191406 52.398438 55.886719 52.324219 55.886719 C 52.246094 55.886719 52.183594 55.8125 52.183594 55.71875 C 52.183594 55.503906 52.695312 55.339844 53.886719 55.175781 C 54.652344 55.074219 54.960938 55.117188 55.542969 55.421875 C 56.167969 55.75 57.453125 57.148438 57.453125 57.503906 C 57.453125 57.574219 57.105469 57.644531 56.679688 57.65625 C 56.257812 57.675781 55.539062 57.738281 55.089844 57.796875 Z M 55.089844 57.796875 " fill-opacity="1" fill-rule="nonzero"/><path fill="#ffffff" d="M 54.132812 55.863281 C 53.804688 56.191406 54.324219 56.652344 54.757812 56.417969 C 54.953125 56.3125 55.078125 56.132812 55.039062 56.011719 C 54.941406 55.71875 54.367188 55.625 54.132812 55.863281 Z M 54.132812 55.863281 " fill-opacity="1" fill-rule="nonzero"/><g clip-path="url(#8ea8d54fd4)"><path fill="#ffffff" d="M 67.671875 34.304688 C 67.757812 34.148438 67.917969 34.019531 68.023438 34.019531 C 68.144531 34.019531 68.128906 34.128906 67.984375 34.304688 C 67.816406 34.507812 67.757812 35.199219 67.785156 36.75 C 67.804688 37.9375 67.738281 39.453125 67.628906 40.117188 C 67.472656 41.097656 67.488281 41.476562 67.714844 42.144531 C 67.867188 42.59375 67.992188 43.363281 67.992188 43.855469 C 67.992188 44.347656 68.058594 44.789062 68.136719 44.839844 C 68.21875 44.890625 68.546875 44.363281 68.867188 43.671875 C 69.1875 42.980469 69.625 42.320312 69.839844 42.203125 C 70.183594 42.019531 70.214844 42.035156 70.085938 42.335938 C 69.703125 43.257812 69.082031 45.382812 69.082031 45.773438 C 69.082031 46.414062 69.621094 46.640625 70.574219 46.410156 C 71.003906 46.304688 71.609375 46.179688 71.921875 46.132812 C 72.753906 46.011719 74.890625 45.328125 75.628906 44.953125 C 76.960938 44.273438 77.804688 42.996094 78.34375 40.855469 C 78.679688 39.511719 79.242188 35.957031 79.144531 35.800781 C 79.097656 35.722656 79.125 35.558594 79.203125 35.433594 C 79.285156 35.308594 79.488281 34.792969 79.652344 34.292969 L 79.949219 33.382812 L 79.96875 34.847656 C 79.980469 35.75 80.078125 36.410156 80.214844 36.558594 C 80.398438 36.75 80.398438 36.816406 80.214844 36.882812 C 80.089844 36.929688 79.988281 37.226562 79.988281 37.542969 C 79.984375 38.0625 79.664062 40.308594 79.339844 42.074219 L 79.214844 42.75 L 79.921875 42.558594 C 82.554688 41.84375 85.007812 39.488281 85.96875 36.75 L 86.300781 35.804688 L 86.429688 36.824219 C 86.5 37.382812 86.632812 37.886719 86.722656 37.945312 C 86.980469 38.105469 88.597656 35.488281 89.128906 34.050781 C 89.390625 33.34375 89.660156 32.328125 89.726562 31.796875 C 89.953125 30.011719 90.183594 30.195312 90.113281 32.105469 C 90.035156 34.199219 89.671875 35.390625 88.617188 37.042969 C 87.730469 38.4375 85.941406 40.292969 83.941406 41.898438 C 83.066406 42.601562 82.351562 43.21875 82.351562 43.269531 C 82.351562 43.324219 83.066406 43.324219 83.941406 43.273438 C 84.816406 43.222656 85.449219 43.207031 85.347656 43.242188 C 85.25 43.277344 81.570312 44.40625 77.171875 45.753906 C 68.425781 48.433594 67.15625 48.871094 65.675781 49.71875 L 64.6875 50.285156 L 66.140625 51.765625 C 66.9375 52.582031 67.648438 53.4375 67.71875 53.675781 C 67.816406 53.996094 67.699219 54.308594 67.246094 54.941406 C 66.777344 55.597656 66.632812 56.003906 66.570312 56.839844 C 66.503906 57.757812 66.558594 58 66.984375 58.640625 C 67.589844 59.554688 67.722656 59.480469 67.355469 58.429688 C 66.980469 57.375 67.09375 57.164062 68.023438 57.164062 L 68.792969 57.164062 L 68.164062 56.503906 L 67.539062 55.847656 L 68.128906 55.925781 C 68.703125 56.003906 68.949219 55.820312 68.492188 55.65625 C 68.324219 55.59375 68.316406 55.484375 68.464844 55.230469 C 68.648438 54.910156 69.261719 54.625 71.515625 53.796875 C 72.0625 53.597656 72.4375 53.339844 72.492188 53.125 C 72.542969 52.933594 72.675781 52.808594 72.789062 52.851562 C 72.898438 52.890625 73.65625 52.28125 74.46875 51.492188 C 76.472656 49.546875 77.519531 49.058594 79.683594 49.066406 C 81.570312 49.074219 81.773438 49.230469 81.25 50.257812 C 80.453125 51.832031 77.652344 54.367188 74.171875 56.671875 L 72.265625 57.933594 L 73.488281 57.828125 C 77.835938 57.457031 81.875 54.074219 82.988281 49.875 C 83.375 48.425781 83.34375 47.5625 82.898438 47.324219 C 82.425781 47.070312 79.257812 47.382812 77.375 47.863281 C 74.632812 48.566406 71.5 50.148438 69.277344 51.949219 L 68.039062 52.949219 L 67.472656 52.15625 C 67.160156 51.722656 66.902344 51.285156 66.902344 51.191406 C 66.902344 50.988281 68.511719 50.238281 71.808594 48.910156 C 74.253906 47.921875 76.554688 47.207031 78.625 46.785156 C 80.964844 46.3125 82.53125 45.8125 82.53125 45.542969 C 82.53125 45.347656 82.59375 45.324219 82.765625 45.464844 C 83.25 45.871094 88.691406 43.328125 90.03125 42.074219 C 91.183594 40.992188 90.324219 40.84375 87.742188 41.675781 C 86.804688 41.976562 85.988281 42.222656 85.921875 42.222656 C 85.605469 42.222656 85.957031 41.753906 87.730469 39.84375 C 88.789062 38.699219 89.859375 37.410156 90.113281 36.980469 C 90.363281 36.550781 90.839844 35.195312 91.171875 33.972656 C 91.964844 31.039062 91.941406 31.097656 93.535156 28.441406 C 94.296875 27.179688 94.882812 26.113281 94.839844 26.070312 C 94.652344 25.886719 93.722656 26.425781 92.84375 27.222656 C 91.082031 28.824219 91.09375 28.816406 91.003906 28.535156 C 90.957031 28.394531 90.628906 27.480469 90.273438 26.503906 C 89.855469 25.355469 89.558594 24.132812 89.4375 23.042969 C 88.832031 17.625 87.566406 11.363281 86.933594 10.644531 C 86.488281 10.140625 86.328125 10.53125 86.535156 11.617188 C 86.828125 13.160156 87.089844 15.929688 87.089844 17.484375 C 87.09375 18.460938 87.160156 18.894531 87.3125 18.898438 C 87.480469 18.898438 87.480469 18.933594 87.3125 19.039062 C 87.195312 19.113281 87.074219 19.605469 87.042969 20.132812 C 87.011719 20.65625 86.90625 21.101562 86.804688 21.117188 C 86.707031 21.132812 85.953125 20.25 85.128906 19.15625 C 84.015625 17.671875 83.507812 17.140625 83.144531 17.074219 C 82.875 17.023438 82.613281 16.867188 82.566406 16.726562 C 82.507812 16.542969 82.59375 16.5 82.871094 16.574219 C 83.433594 16.722656 83.347656 16.367188 82.765625 16.148438 C 82.4375 16.023438 82.34375 15.914062 82.492188 15.820312 C 82.757812 15.660156 81.828125 13.757812 81.53125 13.859375 C 81.132812 13.996094 81.394531 15.699219 81.996094 16.890625 C 82.324219 17.542969 82.679688 18.136719 82.789062 18.210938 C 82.898438 18.285156 82.917969 18.34375 82.835938 18.347656 C 82.75 18.347656 83.679688 20.292969 84.898438 22.671875 C 87.675781 28.097656 88.210938 29.617188 88.230469 32.109375 C 88.242188 33.4375 88.167969 34.070312 87.960938 34.457031 C 87.679688 34.976562 87.671875 34.964844 87.550781 33.363281 C 87.417969 31.6875 87.078125 29.402344 86.976562 29.503906 C 86.945312 29.535156 86.789062 30.375 86.628906 31.363281 C 86.46875 32.355469 86.132812 33.777344 85.882812 34.527344 C 85.632812 35.277344 85.453125 35.976562 85.488281 36.078125 C 85.523438 36.179688 85.34375 36.46875 85.09375 36.722656 C 84.65625 37.160156 84.652344 37.183594 84.992188 37.316406 C 85.34375 37.457031 85.34375 37.457031 84.984375 37.480469 C 84.753906 37.496094 84.292969 37.976562 83.714844 38.808594 C 83.109375 39.675781 82.394531 40.410156 81.574219 41.011719 C 80.894531 41.503906 80.308594 41.875 80.265625 41.832031 C 80.226562 41.792969 80.511719 40.117188 80.902344 38.117188 C 81.777344 33.660156 81.933594 31.574219 81.558594 29.5 C 81.273438 27.917969 80.890625 27.097656 80.445312 27.097656 C 80.023438 27.097656 79.828125 27.671875 79.625 29.492188 C 79.199219 33.355469 78.078125 38.816406 77.140625 41.585938 C 76.902344 42.285156 76.730469 42.875 76.757812 42.890625 C 76.785156 42.90625 76.628906 43.164062 76.40625 43.464844 C 76.074219 43.914062 75.570312 44.152344 73.5 44.847656 C 72.121094 45.308594 70.9375 45.683594 70.875 45.683594 C 70.644531 45.683594 70.625 44.09375 70.855469 43.878906 C 70.980469 43.761719 71.082031 43.460938 71.082031 43.210938 C 71.082031 42.902344 71.457031 42.371094 72.257812 41.535156 C 73.332031 40.410156 73.398438 40.292969 73.066406 40.140625 C 72.796875 40.015625 72.375 40.117188 71.414062 40.546875 L 70.125 41.121094 L 70.230469 40.105469 C 70.328125 39.121094 70.320312 39.089844 69.9375 39.210938 C 68.9375 39.523438 68.695312 39.523438 68.351562 39.207031 C 67.859375 38.765625 67.886719 38.378906 68.402344 38.472656 C 68.628906 38.515625 68.851562 38.558594 68.902344 38.566406 C 68.953125 38.574219 68.871094 38.660156 68.71875 38.757812 C 68.496094 38.902344 68.519531 38.9375 68.835938 38.9375 C 69.046875 38.941406 69.480469 38.890625 69.800781 38.824219 L 70.382812 38.707031 L 70.265625 37.777344 C 69.976562 35.53125 69.050781 32.746094 68.597656 32.746094 C 68.425781 32.746094 68.367188 32.628906 68.4375 32.414062 C 68.570312 31.992188 67.089844 30.316406 66.945312 30.726562 C 66.789062 31.164062 67.492188 34.625 67.671875 34.304688 Z M 67.671875 34.304688 " fill-opacity="1" fill-rule="nonzero"/></g><path fill="#ffffff" d="M 52.398438 45.40625 C 51.789062 44.273438 51.125 42.859375 50.921875 42.257812 C 50.050781 39.667969 49.984375 36.382812 50.726562 32.746094 C 50.984375 31.472656 51.050781 30.816406 50.921875 30.773438 C 50.816406 30.738281 50.726562 30.625 50.726562 30.523438 C 50.726562 30.417969 50.84375 30.378906 50.980469 30.433594 C 51.160156 30.503906 51.296875 30.296875 51.4375 29.734375 C 51.828125 28.179688 51.644531 28.007812 50.667969 29.011719 C 49.644531 30.070312 48.277344 33.042969 47.925781 34.976562 C 47.816406 35.578125 47.847656 35.660156 48.164062 35.660156 C 48.417969 35.660156 48.546875 35.511719 48.597656 35.160156 C 48.667969 34.695312 48.675781 34.703125 48.703125 35.253906 C 48.722656 35.71875 48.839844 35.898438 49.226562 36.0625 L 49.726562 36.277344 L 49.226562 36.34375 C 48.742188 36.410156 48.730469 36.445312 48.730469 37.5625 C 48.730469 39.023438 49.167969 41.554688 49.640625 42.820312 C 50.613281 45.433594 52.738281 47.90625 55.054688 49.117188 C 55.824219 49.519531 56.863281 50.140625 57.359375 50.5 C 57.859375 50.855469 58.285156 51.148438 58.308594 51.148438 C 58.332031 51.148438 58.65625 50.816406 59.035156 50.410156 L 59.722656 49.671875 L 61.617188 49.492188 C 62.660156 49.394531 63.785156 49.183594 64.117188 49.027344 C 65.597656 48.320312 67.929688 43.601562 67.542969 42.085938 C 67.421875 41.613281 67.386719 41.65625 67.007812 42.695312 C 66.515625 44.054688 64.710938 46.964844 63.984375 47.578125 C 63.675781 47.835938 63.011719 48.113281 62.40625 48.230469 C 60.910156 48.527344 60.195312 48.761719 59.316406 49.242188 L 58.546875 49.664062 L 58.175781 49.140625 C 57.648438 48.394531 56.113281 47.699219 54.699219 47.570312 L 53.511719 47.457031 Z M 52.398438 45.40625 " fill-opacity="1" fill-rule="nonzero"/><path fill="#ffffff" d="M 27.820312 20.210938 C 27.488281 13.945312 27.148438 9.964844 26.945312 9.992188 C 26.578125 10.039062 26.367188 9.941406 26.472656 9.769531 C 26.539062 9.664062 26.707031 9.621094 26.847656 9.671875 C 27.371094 9.875 26.609375 7.734375 26.054688 7.4375 C 25.710938 7.253906 25.699219 7.359375 25.589844 10.929688 C 25.527344 12.953125 25.425781 14.980469 25.363281 15.429688 C 25.285156 16.039062 25.304688 16.179688 25.449219 15.976562 C 25.609375 15.75 25.640625 15.769531 25.644531 16.101562 C 25.644531 16.320312 25.535156 16.613281 25.398438 16.75 C 25.257812 16.886719 25.085938 17.445312 25.011719 17.984375 L 24.875 18.96875 L 24.433594 18.457031 C 23.6875 17.585938 23.753906 18.074219 24.574219 19.519531 C 25.003906 20.277344 25.414062 20.835938 25.484375 20.761719 C 25.671875 20.570312 25.964844 17.871094 26.195312 14.25 C 26.304688 12.550781 26.417969 11.132812 26.445312 11.105469 C 26.546875 11.007812 26.96875 15.925781 27.078125 18.484375 C 27.199219 21.226562 27.15625 21.542969 26.453125 22.996094 C 26.214844 23.496094 25.902344 24.644531 25.761719 25.546875 C 25.621094 26.449219 25.496094 26.980469 25.484375 26.730469 C 25.464844 26.351562 24.589844 23.691406 22.980469 19.121094 C 22.753906 18.480469 22.625 18.34375 22.222656 18.335938 C 21.753906 18.324219 21.75 18.320312 22.148438 18.160156 L 22.558594 17.996094 L 22.179688 17.03125 C 21.539062 15.398438 21.136719 14.597656 21.121094 14.929688 C 21.113281 15.105469 21.023438 15.25 20.921875 15.25 C 20.6875 15.25 20.683594 14.578125 20.917969 14.429688 C 21.027344 14.363281 20.957031 13.953125 20.738281 13.371094 C 20.539062 12.851562 20.378906 12.382812 20.382812 12.332031 C 20.382812 12.285156 20.910156 13.144531 21.550781 14.246094 C 23.445312 17.503906 23.660156 17.847656 23.75 17.761719 C 23.792969 17.714844 22.949219 15.921875 21.871094 13.777344 C 20.789062 11.628906 19.644531 9.09375 19.320312 8.140625 C 18.550781 5.882812 18.464844 5.75 18.179688 6.371094 C 17.992188 6.792969 18.050781 7.21875 18.601562 9.371094 C 19.203125 11.722656 22.046875 19.660156 23.382812 22.714844 C 23.710938 23.46875 24.085938 24.621094 24.210938 25.273438 C 24.339844 25.925781 24.554688 26.59375 24.691406 26.757812 C 24.871094 26.96875 24.882812 27.078125 24.734375 27.125 C 24.398438 27.238281 24.714844 28.550781 25.078125 28.554688 C 25.316406 28.558594 25.328125 28.589844 25.125 28.71875 C 24.957031 28.824219 24.910156 29.039062 24.992188 29.355469 L 25.113281 29.835938 L 24.515625 29.578125 C 24.1875 29.4375 23.347656 29.074219 22.648438 28.769531 C 20.941406 28.03125 19.359375 27.71875 18.679688 27.988281 C 18.398438 28.097656 18.199219 28.292969 18.242188 28.417969 C 18.34375 28.730469 19.5 29.367188 21.011719 29.945312 C 22.976562 30.691406 23.707031 31.195312 25.113281 32.757812 C 25.828125 33.550781 26.425781 34.203125 26.4375 34.203125 C 26.453125 34.203125 26.46875 33.035156 26.46875 31.605469 L 26.472656 31.605469 C 26.476562 28.839844 26.75 27.097656 27.558594 24.714844 C 27.980469 23.476562 27.988281 23.359375 27.820312 20.210938 Z M 27.820312 20.210938 " fill-opacity="1" fill-rule="nonzero"/><path fill="#ffffff" d="M 39.304688 15.597656 C 39.660156 15.410156 39.660156 15.394531 39.339844 15.148438 C 39.144531 15 39.097656 14.894531 39.234375 14.890625 C 39.476562 14.882812 39.558594 14.339844 39.3125 14.339844 C 39.054688 14.339844 38.445312 14.871094 38.695312 14.878906 C 38.867188 14.882812 38.878906 14.972656 38.738281 15.238281 C 38.414062 15.847656 38.609375 15.972656 39.304688 15.597656 Z M 39.304688 15.597656 " fill-opacity="1" fill-rule="nonzero"/><g fill="#ffffff" fill-opacity="1"><g transform="translate(107.488804, 33.813162)"><g><path d="M 2.925781 0 L 2.925781 -3.4375 L 3.695312 -3.4375 L 5.902344 0 L 7.96875 0 L 5.210938 -4.285156 L 7.902344 -8.46875 L 5.835938 -8.46875 L 3.65625 -5.082031 L 2.925781 -5.082031 L 2.925781 -8.46875 L 0.960938 -8.46875 L 0.960938 0 Z M 2.925781 0 "/></g></g></g><g fill="#ffffff" fill-opacity="1"><g transform="translate(115.596187, 33.813162)"><g><path d="M 3.066406 -2.105469 L 0.71875 -2.105469 L 0.71875 0 L 3.066406 0 Z M 3.066406 -2.105469 "/></g></g></g><g fill="#ffffff" fill-opacity="1"><g transform="translate(119.380489, 33.813162)"><g/></g></g><g fill="#ffffff" fill-opacity="1"><g transform="translate(122.972373, 33.813162)"><g><path d="M 5.824219 -2.539062 C 5.824219 -1.578125 4.902344 -1.539062 4.3125 -1.539062 C 2.949219 -1.539062 2.476562 -1.746094 2.476562 -4.246094 C 2.476562 -6.773438 2.949219 -6.929688 4.347656 -6.929688 C 5.082031 -6.929688 5.824219 -6.875 5.824219 -5.925781 L 7.789062 -5.925781 C 7.789062 -8.109375 6.3125 -8.597656 4.324219 -8.597656 C 1.679688 -8.597656 0.511719 -7.800781 0.511719 -4.246094 C 0.511719 -0.691406 1.679688 0.128906 4.257812 0.128906 C 6.144531 0.128906 7.789062 -0.347656 7.789062 -2.539062 Z M 5.824219 -2.539062 "/></g></g></g><g fill="#ffffff" fill-opacity="1"><g transform="translate(130.93865, 33.813162)"><g><path d="M 3.066406 -2.105469 L 0.71875 -2.105469 L 0.71875 0 L 3.066406 0 Z M 3.066406 -2.105469 "/></g></g></g><g fill="#ffffff" fill-opacity="1"><g transform="translate(107.488804, 51.520952)"><g><path d="M 4.632812 0 C 6.699219 0 7.660156 -0.566406 7.660156 -2.335938 C 7.660156 -3.527344 7.070312 -4.078125 5.773438 -4.257812 C 6.890625 -4.453125 7.402344 -5.003906 7.402344 -6.144531 C 7.402344 -7.863281 6.519531 -8.46875 4.632812 -8.46875 L 0.960938 -8.46875 L 0.960938 0 Z M 2.925781 -1.667969 L 2.925781 -3.4375 L 4.554688 -3.4375 C 5.476562 -3.4375 5.695312 -3.117188 5.695312 -2.515625 C 5.695312 -1.976562 5.554688 -1.667969 4.554688 -1.667969 Z M 2.925781 -5.082031 L 2.925781 -6.800781 L 4.554688 -6.800781 C 5.363281 -6.800781 5.441406 -6.53125 5.441406 -6.070312 C 5.441406 -5.324219 5.15625 -5.082031 4.554688 -5.082031 Z M 2.925781 -5.082031 "/></g></g></g><g fill="#ffffff" fill-opacity="1"><g transform="translate(115.72447, 51.520952)"><g><path d="M 8.632812 0 C 7.503906 -2.824219 6.402344 -5.644531 5.285156 -8.46875 L 3.503906 -8.46875 C 2.375 -5.644531 1.246094 -2.824219 0.128906 0 L 2.128906 0 L 2.695312 -1.488281 L 6.070312 -1.488281 L 6.632812 0 Z M 3.324219 -3.15625 C 3.464844 -3.542969 3.617188 -3.925781 3.757812 -4.324219 C 4.222656 -5.542969 4.375 -6.53125 4.375 -6.53125 L 4.425781 -6.53125 C 4.425781 -6.53125 4.582031 -5.542969 5.042969 -4.324219 C 5.183594 -3.925781 5.335938 -3.542969 5.476562 -3.15625 Z M 3.324219 -3.15625 "/></g></g></g><g fill="#ffffff" fill-opacity="1"><g transform="translate(124.486092, 51.520952)"><g><path d="M 8.097656 0 C 7.46875 -0.949219 6.851562 -1.910156 6.234375 -2.859375 C 7.199219 -3.246094 7.660156 -4.09375 7.660156 -5.621094 C 7.660156 -7.738281 6.710938 -8.46875 4.632812 -8.46875 L 0.960938 -8.46875 L 0.960938 0 L 2.925781 0 L 2.925781 -2.644531 L 4.15625 -2.644531 L 5.851562 0 Z M 2.925781 -4.3125 L 2.925781 -6.800781 L 4.554688 -6.800781 C 5.375 -6.800781 5.695312 -6.492188 5.695312 -5.621094 C 5.695312 -4.644531 5.375 -4.3125 4.554688 -4.3125 Z M 2.925781 -4.3125 "/></g></g></g><g fill="#ffffff" fill-opacity="1"><g transform="translate(132.901354, 51.520952)"><g><path d="M 7.324219 -5.925781 C 7.324219 -7.878906 6.464844 -8.597656 3.953125 -8.597656 C 1.140625 -8.597656 0.511719 -7.699219 0.511719 -6.195312 C 0.511719 -3.953125 1.898438 -3.65625 3.925781 -3.335938 C 4.671875 -3.21875 5.53125 -3.308594 5.53125 -2.296875 C 5.53125 -1.730469 5.273438 -1.539062 3.964844 -1.539062 C 2.410156 -1.539062 2.308594 -1.820312 2.308594 -2.539062 L 0.359375 -2.539062 C 0.359375 -0.679688 1.15625 0.128906 3.925781 0.128906 C 6.570312 0.128906 7.492188 -0.601562 7.492188 -2.335938 C 7.492188 -4.605469 5.914062 -4.851562 3.925781 -5.132812 C 3.128906 -5.246094 2.476562 -5.195312 2.476562 -6.183594 C 2.476562 -6.722656 2.65625 -6.929688 3.914062 -6.929688 C 5.285156 -6.929688 5.375 -6.671875 5.375 -5.925781 Z M 7.324219 -5.925781 "/></g></g></g><g fill="#ffffff" fill-opacity="1"><g transform="translate(140.880454, 51.520952)"><g><path d="M 2.925781 0 L 2.925781 -3.4375 L 3.695312 -3.4375 L 5.902344 0 L 7.96875 0 L 5.210938 -4.285156 L 7.902344 -8.46875 L 5.835938 -8.46875 L 3.65625 -5.082031 L 2.925781 -5.082031 L 2.925781 -8.46875 L 0.960938 -8.46875 L 0.960938 0 Z M 2.925781 0 "/></g></g></g><g fill="#ffffff" fill-opacity="1"><g transform="translate(148.987837, 51.520952)"><g><path d="M 4.503906 0.128906 C 7.273438 0.128906 8.492188 -0.9375 8.492188 -4.234375 C 8.492188 -7.53125 7.273438 -8.597656 4.503906 -8.597656 C 1.71875 -8.597656 0.511719 -7.53125 0.511719 -4.234375 C 0.511719 -0.9375 1.71875 0.128906 4.503906 0.128906 Z M 4.503906 -1.539062 C 3.09375 -1.539062 2.476562 -2.21875 2.476562 -4.234375 C 2.476562 -6.234375 3.09375 -6.929688 4.503906 -6.929688 C 5.902344 -6.929688 6.53125 -6.234375 6.53125 -4.234375 C 6.53125 -2.21875 5.902344 -1.539062 4.503906 -1.539062 Z M 4.503906 -1.539062 "/></g></g></g><g fill="#ffffff" fill-opacity="1"><g transform="translate(157.980368, 51.520952)"><g><path d="M 4.503906 0.128906 C 7.273438 0.128906 8.492188 -0.9375 8.492188 -4.234375 C 8.492188 -7.53125 7.273438 -8.597656 4.503906 -8.597656 C 1.71875 -8.597656 0.511719 -7.53125 0.511719 -4.234375 C 0.511719 -0.9375 1.71875 0.128906 4.503906 0.128906 Z M 4.503906 -1.539062 C 3.09375 -1.539062 2.476562 -2.21875 2.476562 -4.234375 C 2.476562 -6.234375 3.09375 -6.929688 4.503906 -6.929688 C 5.902344 -6.929688 6.53125 -6.234375 6.53125 -4.234375 C 6.53125 -2.21875 5.902344 -1.539062 4.503906 -1.539062 Z M 4.503906 -1.539062 "/></g></g></g><g fill="#ffffff" fill-opacity="1"><g transform="translate(166.9729, 51.520952)"><g><path d="M 6.144531 -3.695312 C 6.144531 -3.039062 6.3125 -2.269531 6.3125 -2.269531 L 6.261719 -2.269531 C 6.261719 -2.449219 6.015625 -3.039062 5.65625 -3.773438 C 4.902344 -5.335938 4.144531 -6.902344 3.375 -8.46875 L 0.960938 -8.46875 L 0.960938 0 L 2.925781 0 L 2.925781 -4.773438 C 2.925781 -5.414062 2.746094 -6.195312 2.746094 -6.195312 L 2.796875 -6.195312 C 2.796875 -6.082031 3.027344 -5.464844 3.398438 -4.695312 L 5.683594 0 L 8.109375 0 L 8.109375 -8.46875 L 6.144531 -8.46875 Z M 6.144531 -3.695312 "/></g></g></g><g fill="#ffffff" fill-opacity="1"><g transform="translate(107.488804, 69.228741)"><g><path d="M 5.542969 1.5 C 5.542969 0.859375 5.15625 0.5 4.273438 0.449219 L 4.285156 0.117188 C 6.660156 0.0507812 7.492188 -0.679688 7.492188 -2.335938 C 7.492188 -4.605469 5.914062 -4.851562 3.925781 -5.132812 C 3.128906 -5.246094 2.476562 -5.195312 2.476562 -6.183594 C 2.476562 -6.722656 2.65625 -6.929688 3.914062 -6.929688 C 5.285156 -6.929688 5.375 -6.671875 5.375 -5.925781 L 7.324219 -5.925781 C 7.324219 -7.878906 6.464844 -8.597656 3.953125 -8.597656 C 1.140625 -8.597656 0.511719 -7.699219 0.511719 -6.195312 C 0.5 -3.953125 1.898438 -3.65625 3.925781 -3.335938 C 4.671875 -3.21875 5.53125 -3.308594 5.53125 -2.296875 C 5.53125 -1.730469 5.273438 -1.539062 3.964844 -1.539062 C 2.410156 -1.539062 2.308594 -1.820312 2.308594 -2.539062 L 0.359375 -2.539062 C 0.359375 -0.808594 1.039062 0 3.363281 0.117188 L 3.257812 1.050781 C 3.863281 1.117188 4.117188 1.269531 4.117188 1.515625 C 4.117188 1.71875 3.886719 1.820312 3.476562 1.820312 C 3.21875 1.820312 2.964844 1.769531 2.679688 1.628906 L 2.679688 2.515625 C 2.859375 2.628906 3.234375 2.71875 3.722656 2.71875 C 4.746094 2.71875 5.542969 2.335938 5.542969 1.5 Z M 5.542969 1.5 "/></g></g></g><g fill="#ffffff" fill-opacity="1"><g transform="translate(115.467903, 69.228741)"><g><path d="M 6.863281 0 L 6.863281 -1.667969 L 2.925781 -1.667969 L 2.925781 -3.4375 L 6.351562 -3.4375 L 6.351562 -5.082031 L 2.925781 -5.082031 L 2.925781 -6.800781 L 6.863281 -6.800781 L 6.863281 -8.46875 L 0.960938 -8.46875 L 0.960938 0 Z M 6.863281 0 "/></g></g></g><g fill="#ffffff" fill-opacity="1"><g transform="translate(122.972361, 69.228741)"><g><path d="M 8.109375 0 L 8.109375 -8.46875 L 6.144531 -8.46875 L 6.144531 -5.082031 L 2.925781 -5.082031 L 2.925781 -8.46875 L 0.960938 -8.46875 L 0.960938 0 L 2.925781 0 L 2.925781 -3.4375 L 6.144531 -3.4375 L 6.144531 0 Z M 8.109375 0 "/></g></g></g><g fill="#ffffff" fill-opacity="1"><g transform="translate(132.04185, 69.228741)"><g><path d="M 2.925781 0 L 2.925781 -8.46875 L 0.960938 -8.46875 L 0.960938 0 Z M 2.769531 -9.316406 L 2.769531 -10.984375 L 1.117188 -10.984375 L 1.117188 -9.316406 Z M 2.769531 -9.316406 "/></g></g></g><g fill="#ffffff" fill-opacity="1"><g transform="translate(135.928779, 69.228741)"><g><path d="M 8.097656 0 C 7.46875 -0.949219 6.851562 -1.910156 6.234375 -2.859375 C 7.199219 -3.246094 7.660156 -4.09375 7.660156 -5.621094 C 7.660156 -7.738281 6.710938 -8.46875 4.632812 -8.46875 L 0.960938 -8.46875 L 0.960938 0 L 2.925781 0 L 2.925781 -2.644531 L 4.15625 -2.644531 L 5.851562 0 Z M 2.925781 -4.3125 L 2.925781 -6.800781 L 4.554688 -6.800781 C 5.375 -6.800781 5.695312 -6.492188 5.695312 -5.621094 C 5.695312 -4.644531 5.375 -4.3125 4.554688 -4.3125 Z M 2.925781 -4.3125 "/></g></g></g><g fill="#ffffff" fill-opacity="1"><g transform="translate(107.488804, 86.936531)"><g><path d="M 4.632812 0 C 6.699219 0 7.660156 -0.566406 7.660156 -2.335938 C 7.660156 -3.527344 7.070312 -4.078125 5.773438 -4.257812 C 6.890625 -4.453125 7.402344 -5.003906 7.402344 -6.144531 C 7.402344 -7.863281 6.519531 -8.46875 4.632812 -8.46875 L 0.960938 -8.46875 L 0.960938 0 Z M 2.925781 -1.667969 L 2.925781 -3.4375 L 4.554688 -3.4375 C 5.476562 -3.4375 5.695312 -3.117188 5.695312 -2.515625 C 5.695312 -1.976562 5.554688 -1.667969 4.554688 -1.667969 Z M 2.925781 -5.082031 L 2.925781 -6.800781 L 4.554688 -6.800781 C 5.363281 -6.800781 5.441406 -6.53125 5.441406 -6.070312 C 5.441406 -5.324219 5.15625 -5.082031 4.554688 -5.082031 Z M 2.925781 -5.082031 "/></g></g></g><g fill="#ffffff" fill-opacity="1"><g transform="translate(115.72447, 86.936531)"><g><path d="M 6.863281 0 L 6.863281 -1.667969 L 2.925781 -1.667969 L 2.925781 -3.4375 L 6.351562 -3.4375 L 6.351562 -5.082031 L 2.925781 -5.082031 L 2.925781 -6.800781 L 6.863281 -6.800781 L 6.863281 -8.46875 L 0.960938 -8.46875 L 0.960938 0 Z M 6.863281 0 "/></g></g></g><g fill="#ffffff" fill-opacity="1"><g transform="translate(123.228927, 86.936531)"><g><path d="M 6.554688 0 L 6.554688 -1.667969 L 2.925781 -1.667969 L 2.925781 -8.46875 L 0.960938 -8.46875 L 0.960938 0 Z M 6.554688 0 "/></g></g></g><g fill="#ffffff" fill-opacity="1"><g transform="translate(130.156128, 86.936531)"><g><path d="M 6.863281 0 L 6.863281 -1.667969 L 2.925781 -1.667969 L 2.925781 -3.4375 L 6.351562 -3.4375 L 6.351562 -5.082031 L 2.925781 -5.082031 L 2.925781 -6.800781 L 6.863281 -6.800781 L 6.863281 -8.46875 L 0.960938 -8.46875 L 0.960938 0 Z M 6.863281 0 "/></g></g></g><g fill="#ffffff" fill-opacity="1"><g transform="translate(137.660586, 86.936531)"><g><path d="M 2.925781 -1.667969 L 2.925781 -6.800781 L 3.667969 -6.800781 C 5.441406 -6.800781 6.210938 -6.144531 6.210938 -4.234375 C 6.210938 -2.320312 5.441406 -1.667969 3.667969 -1.667969 Z M 3.667969 0 C 6.800781 0 8.171875 -1.039062 8.171875 -4.234375 C 8.171875 -7.429688 6.800781 -8.46875 3.667969 -8.46875 L 0.960938 -8.46875 L 0.960938 0 Z M 3.667969 0 "/></g></g></g><g fill="#ffffff" fill-opacity="1"><g transform="translate(146.345237, 86.936531)"><g><path d="M 2.925781 0 L 2.925781 -8.46875 L 0.960938 -8.46875 L 0.960938 0 Z M 2.769531 -9.316406 L 2.769531 -10.984375 L 1.117188 -10.984375 L 1.117188 -9.316406 Z M 2.769531 -9.316406 "/></g></g></g><g fill="#ffffff" fill-opacity="1"><g transform="translate(150.232167, 86.936531)"><g><path d="M 2.925781 -2.9375 L 2.925781 0 L 4.886719 0 L 4.886719 -2.9375 L 7.722656 -8.46875 L 5.566406 -8.46875 L 4.414062 -6.222656 C 3.953125 -5.335938 3.9375 -4.671875 3.9375 -4.644531 L 3.886719 -4.644531 C 3.886719 -4.65625 3.847656 -5.300781 3.386719 -6.234375 C 3.015625 -6.964844 2.667969 -7.722656 2.285156 -8.46875 L 0.117188 -8.46875 Z M 2.925781 -2.9375 "/></g></g></g><g fill="#ffffff" fill-opacity="1"><g transform="translate(158.070161, 86.936531)"><g><path d="M 6.863281 0 L 6.863281 -1.667969 L 2.925781 -1.667969 L 2.925781 -3.4375 L 6.351562 -3.4375 L 6.351562 -5.082031 L 2.925781 -5.082031 L 2.925781 -6.800781 L 6.863281 -6.800781 L 6.863281 -8.46875 L 0.960938 -8.46875 L 0.960938 0 Z M 6.863281 0 "/></g></g></g><g fill="#ffffff" fill-opacity="1"><g transform="translate(165.574618, 86.936531)"><g><path d="M 7.324219 -5.925781 C 7.324219 -7.878906 6.464844 -8.597656 3.953125 -8.597656 C 1.140625 -8.597656 0.511719 -7.699219 0.511719 -6.195312 C 0.511719 -3.953125 1.898438 -3.65625 3.925781 -3.335938 C 4.671875 -3.21875 5.53125 -3.308594 5.53125 -2.296875 C 5.53125 -1.730469 5.273438 -1.539062 3.964844 -1.539062 C 2.410156 -1.539062 2.308594 -1.820312 2.308594 -2.539062 L 0.359375 -2.539062 C 0.359375 -0.679688 1.15625 0.128906 3.925781 0.128906 C 6.570312 0.128906 7.492188 -0.601562 7.492188 -2.335938 C 7.492188 -4.605469 5.914062 -4.851562 3.925781 -5.132812 C 3.128906 -5.246094 2.476562 -5.195312 2.476562 -6.183594 C 2.476562 -6.722656 2.65625 -6.929688 3.914062 -6.929688 C 5.285156 -6.929688 5.375 -6.671875 5.375 -5.925781 Z M 7.324219 -5.925781 "/></g></g></g><g fill="#ffffff" fill-opacity="1"><g transform="translate(173.553718, 86.936531)"><g><path d="M 2.925781 0 L 2.925781 -8.46875 L 0.960938 -8.46875 L 0.960938 0 Z M 2.769531 -9.316406 L 2.769531 -10.984375 L 1.117188 -10.984375 L 1.117188 -9.316406 Z M 2.769531 -9.316406 "/></g></g></g></svg>